# xmcd
#
# Track frame offsets: 
#        150
#        16872
#        37650
#        66815
#        86275
#        99197
#        124772
#        137855
#        181800
#        206397
#        231115
#        249265
#        288702
#
# Disc length: 4136 seconds
#
# Revision: 1
# Processed by: cddbd v1.5.1PL0 Copyright (c) Steve Scherf et al.
# Submitted via: ExactAudioCopy v0.95a5
#
DISCID=9f10260d
DTITLE=Van Morrison - Sounding In The Clouds
DYEAR=1991
DGENRE=Rock
TTITLE0=Moondance
TTITLE1=Vanlose Stairway
TTITLE2=It's All In The Game
TTITLE3=Into The Mystic
TTITLE4=Like A Song
TTITLE5=Haunts Of Ancient Peace
TTITLE6=Celic Swing
TTITLE7=Cyprus Avenue
TTITLE8=In The Garden
TTITLE9=Caravan
TTITLE10=Tura Lora
TTITLE11=Rave On, John Donne
TTITLE12=Sounding In The Clouds
EXTD=Strings arranged and conducted by Jeff Labes
EXTT0=Recorded live in Berkeley, California March 17th 1985
EXTT1=
EXTT2=
EXTT3=
EXTT4=
EXTT5=
EXTT6=
EXTT7=
EXTT8=
EXTT9=
EXTT10=
EXTT11=
EXTT12=
PLAYORDER=
